<svg width="182" height="30" viewBox="0 0 182 30" fill="none" xmlns="http://www.w3.org/2000/svg">
<g filter="url(#filter0_d)">
<path fill-rule="evenodd" clip-rule="evenodd" d="M18.8157 1.62674C17.656 1.20891 16.306 1 14.7657 1H5V21H15.2358C16.794 21 18.1552 20.7725 19.3194 20.3175C20.4836 19.8626 21.3881 19.208 22.0328 18.3538C22.6776 17.4995 23 16.5107 23 15.3872C23 14.1244 22.6507 13.0334 21.9522 12.1142C21.2537 11.195 20.3269 10.6007 19.1716 10.3315C20.1657 10.0251 20.956 9.4819 21.5425 8.70195C22.1291 7.922 22.4224 7.03993 22.4224 6.05571C22.4224 5.04363 22.1112 4.15692 21.4888 3.39554C20.8664 2.63417 19.9754 2.04457 18.8157 1.62674ZM14.7143 9H12V7H14.7143C15.1032 7 15.4147 7.08987 15.6488 7.26961C15.8829 7.44935 16 7.68627 16 7.98039C16 8.28758 15.8829 8.53431 15.6488 8.72059C15.4147 8.90686 15.1032 9 14.7143 9ZM10 16H13.6676C14.3753 16 14.941 15.8539 15.3646 15.5616C15.7882 15.2694 16 14.8904 16 14.4247C16 13.9954 15.7855 13.6507 15.3566 13.3904C14.9276 13.1301 14.3646 13 13.6676 13H10V16ZM45.8418 16.9135C46.6139 15.6085 47 14.0952 47 12.3736V1H40.4507V12.3736C40.4507 13.3443 40.1818 14.1204 39.6441 14.7019C39.1063 15.2834 38.4238 15.5742 37.5965 15.5742C36.7508 15.5742 36.0316 15.2743 35.4387 14.6745C34.8458 14.0746 34.5493 13.3077 34.5493 12.3736V1H28V12.3736C28 14.0952 28.3953 15.6085 29.1858 16.9135C29.9763 18.2184 31.0954 19.2257 32.5432 19.9354C33.9909 20.6452 35.6662 21 37.5689 21C39.4717 21 41.1332 20.6452 42.5533 19.9354C43.9735 19.2257 45.0697 18.2184 45.8418 16.9135ZM62.5667 1C64.078 1 65.5847 1.20861 67.087 1.62585C68.5892 2.04309 69.8935 2.60544 71 3.31293L68.6792 8.21088C67.5907 7.61224 66.4056 7.08163 65.1237 6.61905C63.8418 6.15646 62.8051 5.92517 62.0135 5.92517C61.2219 5.92517 60.8261 6.19728 60.8261 6.7415C60.8261 7.14966 61.0757 7.46939 61.575 7.70068C62.0742 7.93197 62.8636 8.18821 63.943 8.46939C65.3463 8.84127 66.5045 9.22222 67.4175 9.61224C68.3306 10.0023 69.1312 10.61 69.8193 11.4354C70.5075 12.2608 70.8516 13.3628 70.8516 14.7415C70.8516 16.1383 70.4895 17.3039 69.7654 18.2381C69.0412 19.1723 68.0607 19.8662 66.8238 20.3197C65.587 20.7732 64.2129 21 62.7016 21C60.9925 21 59.2676 20.7279 57.527 20.1837C55.7863 19.6395 54.2774 18.873 53 17.8844L55.3883 13.0408C56.3688 13.8571 57.5944 14.5669 59.0652 15.1701C60.536 15.7732 61.7661 16.0748 62.7556 16.0748C63.7901 16.0748 64.3073 15.7392 64.3073 15.068C64.3073 14.6417 64.0532 14.3129 63.545 14.0816C63.0367 13.8503 62.2204 13.5941 61.096 13.3129C59.7286 12.9773 58.5862 12.6236 57.6687 12.2517C56.7511 11.8798 55.9573 11.2993 55.2871 10.5102C54.6169 9.72108 54.2819 8.66894 54.2819 7.35374C54.2819 6.07482 54.6214 4.95692 55.3006 4C55.9798 3.04308 56.9468 2.30386 58.2016 1.78231C59.4565 1.26077 60.9115 1 62.5667 1ZM76 1V21H83V1H76ZM102.593 21L94.8975 10.7911V21H89V1H94.4208L102.143 11.2786V1H108V21H102.593ZM121.563 8.47911V6.02785H131.752V1H115V21H132V15.9861H121.563V13.493H130.814V8.47911H121.563ZM145.567 1C147.078 1 148.585 1.20861 150.087 1.62585C151.589 2.04309 152.894 2.60544 154 3.31293L151.679 8.21088C150.591 7.61224 149.406 7.08163 148.124 6.61905C146.842 6.15646 145.805 5.92517 145.013 5.92517C144.222 5.92517 143.826 6.19728 143.826 6.7415C143.826 7.14966 144.076 7.46939 144.575 7.70068C145.074 7.93197 145.864 8.18821 146.943 8.46939C148.346 8.84127 149.504 9.22222 150.418 9.61224C151.331 10.0023 152.131 10.61 152.819 11.4354C153.507 12.2608 153.852 13.3628 153.852 14.7415C153.852 16.1383 153.49 17.3039 152.765 18.2381C152.041 19.1723 151.061 19.8662 149.824 20.3197C148.587 20.7732 147.213 21 145.702 21C143.992 21 142.268 20.7279 140.527 20.1837C138.786 19.6395 137.277 18.873 136 17.8844L138.388 13.0408C139.369 13.8571 140.594 14.5669 142.065 15.1701C143.536 15.7732 144.766 16.0748 145.756 16.0748C146.79 16.0748 147.307 15.7392 147.307 15.068C147.307 14.6417 147.053 14.3129 146.545 14.0816C146.037 13.8503 145.22 13.5941 144.096 13.3129C142.729 12.9773 141.586 12.6236 140.669 12.2517C139.751 11.8798 138.957 11.2993 138.287 10.5102C137.617 9.72108 137.282 8.66894 137.282 7.35374C137.282 6.07482 137.621 4.95692 138.301 4C138.98 3.04308 139.947 2.30386 141.202 1.78231C142.457 1.26077 143.912 1 145.567 1ZM173.087 1.62585C171.585 1.20861 170.078 1 168.567 1C166.912 1 165.457 1.26077 164.202 1.78231C162.947 2.30386 161.98 3.04308 161.301 4C160.621 4.95692 160.282 6.07482 160.282 7.35374C160.282 8.66894 160.617 9.72108 161.287 10.5102C161.957 11.2993 162.751 11.8798 163.669 12.2517C164.586 12.6236 165.729 12.9773 167.096 13.3129C168.22 13.5941 169.037 13.8503 169.545 14.0816C170.053 14.3129 170.307 14.6417 170.307 15.068C170.307 15.7392 169.79 16.0748 168.756 16.0748C167.766 16.0748 166.536 15.7732 165.065 15.1701C163.594 14.5669 162.369 13.8571 161.388 13.0408L159 17.8844C160.277 18.873 161.786 19.6395 163.527 20.1837C165.268 20.7279 166.992 21 168.702 21C170.213 21 171.587 20.7732 172.824 20.3197C174.061 19.8662 175.041 19.1723 175.765 18.2381C176.49 17.3039 176.852 16.1383 176.852 14.7415C176.852 13.3628 176.507 12.2608 175.819 11.4354C175.131 10.61 174.331 10.0023 173.418 9.61224C172.504 9.22222 171.346 8.84127 169.943 8.46939C168.864 8.18821 168.074 7.93197 167.575 7.70068C167.076 7.46939 166.826 7.14966 166.826 6.7415C166.826 6.19728 167.222 5.92517 168.013 5.92517C168.805 5.92517 169.842 6.15646 171.124 6.61905C172.406 7.08163 173.591 7.61224 174.679 8.21088L177 3.31293C175.894 2.60544 174.589 2.04309 173.087 1.62585Z" fill="#007397"/>
<path d="M5 1V0.5H4.5V1H5ZM5 21H4.5V21.5H5V21ZM19.1716 10.3315L19.0244 9.85366L17.2567 10.3985L19.0581 10.8184L19.1716 10.3315ZM21.5425 8.70195L21.1429 8.40142L21.1429 8.40142L21.5425 8.70195ZM12 9H11.5V9.5H12V9ZM12 7V6.5H11.5V7H12ZM10 16H9.5V16.5H10V16ZM15.3646 15.5616L15.0807 15.1501H15.0807L15.3646 15.5616ZM15.3566 13.3904L15.0972 13.8179L15.0972 13.8179L15.3566 13.3904ZM10 13V12.5H9.5V13H10ZM45.8418 16.9135L45.4115 16.6588V16.6588L45.8418 16.9135ZM47 1H47.5V0.5H47V1ZM40.4507 1V0.5H39.9507V1H40.4507ZM34.5493 1H35.0493V0.5H34.5493V1ZM28 1V0.5H27.5V1H28ZM29.1858 16.9135L28.7581 17.1725L29.1858 16.9135ZM67.087 1.62585L66.9532 2.10761V2.10761L67.087 1.62585ZM71 3.31293L71.4518 3.52702L71.6405 3.12897L71.2694 2.89168L71 3.31293ZM68.6792 8.21088L68.4382 8.64899L68.9036 8.90494L69.131 8.42498L68.6792 8.21088ZM63.943 8.46939L64.0711 7.98607L64.0691 7.98553L63.943 8.46939ZM69.8193 11.4354L69.4353 11.7556V11.7556L69.8193 11.4354ZM69.7654 18.2381L69.3702 17.9318V17.9318L69.7654 18.2381ZM66.8238 20.3197L66.6517 19.8503H66.6517L66.8238 20.3197ZM53 17.8844L52.5516 17.6632L52.3709 18.0297L52.694 18.2798L53 17.8844ZM55.3883 13.0408L55.7082 12.6566L55.2205 12.2505L54.9399 12.8197L55.3883 13.0408ZM63.545 14.0816L63.3379 14.5367V14.5367L63.545 14.0816ZM61.096 13.3129L61.2172 12.8279L61.2151 12.8273L61.096 13.3129ZM55.2871 10.5102L54.906 10.8339V10.8339L55.2871 10.5102ZM55.3006 4L54.8929 3.71061V3.71061L55.3006 4ZM58.2016 1.78231L58.0098 1.3206V1.3206L58.2016 1.78231ZM76 21H75.5V21.5H76V21ZM76 1V0.5H75.5V1H76ZM83 21V21.5H83.5V21H83ZM83 1H83.5V0.5H83V1ZM94.8975 10.7911L95.2968 10.4901L94.3975 9.29711V10.7911H94.8975ZM102.593 21L102.194 21.301L102.344 21.5H102.593V21ZM94.8975 21V21.5H95.3975V21H94.8975ZM89 21H88.5V21.5H89V21ZM89 1V0.5H88.5V1H89ZM94.4208 1L94.8205 0.69966L94.6705 0.5H94.4208V1ZM102.143 11.2786L101.744 11.5789L102.643 12.7764V11.2786H102.143ZM102.143 1V0.5H101.643V1H102.143ZM108 1H108.5V0.5H108V1ZM108 21V21.5H108.5V21H108ZM121.563 6.02785V5.52785H121.063V6.02785H121.563ZM121.563 8.47911H121.063V8.97911H121.563V8.47911ZM131.752 6.02785V6.52785H132.252V6.02785H131.752ZM131.752 1H132.252V0.5H131.752V1ZM115 1V0.5H114.5V1H115ZM115 21H114.5V21.5H115V21ZM132 21V21.5H132.5V21H132ZM132 15.9861H132.5V15.4861H132V15.9861ZM121.563 15.9861H121.063V16.4861H121.563V15.9861ZM121.563 13.493V12.993H121.063V13.493H121.563ZM130.814 13.493V13.993H131.314V13.493H130.814ZM130.814 8.47911H131.314V7.97911H130.814V8.47911ZM150.087 1.62585L149.953 2.10761V2.10761L150.087 1.62585ZM154 3.31293L154.452 3.52703L154.64 3.12897L154.269 2.89168L154 3.31293ZM151.679 8.21088L151.438 8.64899L151.904 8.90495L152.131 8.42498L151.679 8.21088ZM146.943 8.46939L147.071 7.98607L147.069 7.98553L146.943 8.46939ZM140.527 20.1837L140.676 19.7065L140.527 20.1837ZM136 17.8844L135.552 17.6632L135.371 18.0297L135.694 18.2798L136 17.8844ZM138.388 13.0408L138.708 12.6566L138.221 12.2505L137.94 12.8197L138.388 13.0408ZM142.065 15.1701L141.875 15.6327L141.876 15.6327L142.065 15.1701ZM146.545 14.0816L146.752 13.6265V13.6265L146.545 14.0816ZM144.096 13.3129L144.217 12.8279L144.215 12.8273L144.096 13.3129ZM140.669 12.2517L140.856 11.7883V11.7883L140.669 12.2517ZM141.202 1.78231L141.01 1.3206V1.3206L141.202 1.78231ZM173.087 1.62585L172.953 2.10761V2.10761L173.087 1.62585ZM164.202 1.78231L164.01 1.3206V1.3206L164.202 1.78231ZM163.669 12.2517L163.856 11.7883V11.7883L163.669 12.2517ZM167.096 13.3129L167.217 12.8279L167.215 12.8273L167.096 13.3129ZM169.545 14.0816L169.752 13.6265V13.6265L169.545 14.0816ZM165.065 15.1701L164.875 15.6327L164.876 15.6327L165.065 15.1701ZM161.388 13.0408L161.708 12.6566L161.221 12.2505L160.94 12.8197L161.388 13.0408ZM159 17.8844L158.552 17.6632L158.371 18.0297L158.694 18.2798L159 17.8844ZM163.527 20.1837L163.676 19.7065L163.527 20.1837ZM169.943 8.46939L170.071 7.98607L170.069 7.98553L169.943 8.46939ZM174.679 8.21088L174.438 8.64899L174.904 8.90495L175.131 8.42498L174.679 8.21088ZM177 3.31293L177.452 3.52703L177.64 3.12897L177.269 2.89168L177 3.31293ZM14.7657 1.5C16.262 1.5 17.5525 1.70309 18.6462 2.09714L18.9852 1.15634C17.7594 0.714729 16.3499 0.5 14.7657 0.5V1.5ZM5 1.5H14.7657V0.5H5V1.5ZM5.5 21V1H4.5V21H5.5ZM15.2358 20.5H5V21.5H15.2358V20.5ZM19.1374 19.8518C18.0436 20.2793 16.7466 20.5 15.2358 20.5V21.5C16.8415 21.5 18.2669 21.2657 19.5014 20.7832L19.1374 19.8518ZM21.6338 18.0525C21.0535 18.8213 20.2301 19.4248 19.1374 19.8518L19.5014 20.7832C20.7371 20.3003 21.7226 19.5947 22.4319 18.655L21.6338 18.0525ZM22.5 15.3872C22.5 16.4078 22.2096 17.2896 21.6338 18.0525L22.4319 18.655C23.1456 17.7095 23.5 16.6136 23.5 15.3872H22.5ZM21.5541 12.4167C22.1803 13.2407 22.5 14.2228 22.5 15.3872H23.5C23.5 14.026 23.1212 12.8262 22.3503 11.8117L21.5541 12.4167ZM19.0581 10.8184C20.1033 11.062 20.9282 11.593 21.5541 12.4167L22.3503 11.8117C21.5793 10.797 20.5504 10.1395 19.2851 9.84453L19.0581 10.8184ZM21.1429 8.40142C20.624 9.09147 19.9247 9.57612 19.0244 9.85366L19.3189 10.8093C20.4066 10.474 21.288 9.87233 21.9421 9.00248L21.1429 8.40142ZM21.9224 6.05571C21.9224 6.93252 21.6637 7.70891 21.1429 8.40142L21.9421 9.00248C22.5945 8.13509 22.9224 7.14734 22.9224 6.05571H21.9224ZM21.1017 3.71199C21.6488 4.38128 21.9224 5.15533 21.9224 6.05571H22.9224C22.9224 4.93194 22.5736 3.93257 21.8759 3.07909L21.1017 3.71199ZM18.6462 2.09714C19.7421 2.492 20.5494 3.0364 21.1017 3.71199L21.8759 3.07909C21.1834 2.23193 20.2086 1.59714 18.9852 1.15634L18.6462 2.09714ZM12 9.5H14.7143V8.5H12V9.5ZM11.5 7V9H12.5V7H11.5ZM14.7143 6.5H12V7.5H14.7143V6.5ZM15.9533 6.873C15.6076 6.60765 15.1783 6.5 14.7143 6.5V7.5C15.028 7.5 15.2217 7.57209 15.3443 7.66621L15.9533 6.873ZM16.5 7.98039C16.5 7.53022 16.3102 7.14698 15.9533 6.873L15.3443 7.66621C15.4557 7.75172 15.5 7.84233 15.5 7.98039H16.5ZM15.9601 9.11186C16.3171 8.82781 16.5 8.4352 16.5 7.98039H15.5C15.5 8.13996 15.4487 8.24082 15.3375 8.32932L15.9601 9.11186ZM14.7143 9.5C15.182 9.5 15.614 9.38723 15.9601 9.11186L15.3375 8.32932C15.2154 8.4265 15.0243 8.5 14.7143 8.5V9.5ZM13.6676 15.5H10V16.5H13.6676V15.5ZM15.0807 15.1501C14.7666 15.3668 14.311 15.5 13.6676 15.5V16.5C14.4397 16.5 15.1154 16.341 15.6485 15.9732L15.0807 15.1501ZM15.5 14.4247C15.5 14.7068 15.3856 14.9397 15.0807 15.1501L15.6485 15.9732C16.1908 15.5991 16.5 15.074 16.5 14.4247H15.5ZM15.0972 13.8179C15.4065 14.0056 15.5 14.2024 15.5 14.4247H16.5C16.5 13.7885 16.1645 13.2958 15.6159 12.9629L15.0972 13.8179ZM13.6676 13.5C14.3072 13.5 14.7712 13.6201 15.0972 13.8179L15.6159 12.9629C15.084 12.6402 14.422 12.5 13.6676 12.5V13.5ZM10 13.5H13.6676V12.5H10V13.5ZM10.5 16V13H9.5V16H10.5ZM46.5 12.3736C46.5 14.018 46.1321 15.441 45.4115 16.6588L46.2721 17.1681C47.0958 15.776 47.5 14.1725 47.5 12.3736H46.5ZM46.5 1V12.3736H47.5V1H46.5ZM40.4507 1.5H47V0.5H40.4507V1.5ZM40.9507 12.3736V1H39.9507V12.3736H40.9507ZM40.0112 15.0414C40.6526 14.3477 40.9507 13.4404 40.9507 12.3736H39.9507C39.9507 13.2483 39.7109 13.8931 39.277 14.3625L40.0112 15.0414ZM37.5965 16.0742C38.5562 16.0742 39.3741 15.7303 40.0112 15.0414L39.277 14.3625C38.8385 14.8366 38.2914 15.0742 37.5965 15.0742V16.0742ZM35.0831 15.0259C35.7702 15.7211 36.6176 16.0742 37.5965 16.0742V15.0742C36.884 15.0742 36.293 14.8275 35.7943 14.323L35.0831 15.0259ZM34.0493 12.3736C34.0493 13.4238 34.3873 14.3221 35.0831 15.0259L35.7943 14.323C35.3042 13.8272 35.0493 13.1916 35.0493 12.3736H34.0493ZM34.0493 1V12.3736H35.0493V1H34.0493ZM28 1.5H34.5493V0.5H28V1.5ZM28.5 12.3736V1H27.5V12.3736H28.5ZM29.6134 16.6544C28.8761 15.4372 28.5 14.0159 28.5 12.3736H27.5C27.5 14.1746 27.9144 15.7798 28.7581 17.1725L29.6134 16.6544ZM32.7633 19.4865C31.3963 18.8164 30.3515 17.8727 29.6134 16.6544L28.7581 17.1725C29.6011 18.5641 30.7945 19.6351 32.3231 20.3844L32.7633 19.4865ZM37.5689 20.5C35.7288 20.5 34.1312 20.1571 32.7633 19.4865L32.3231 20.3844C33.8506 21.1332 35.6035 21.5 37.5689 21.5V20.5ZM42.3298 19.4882C40.9915 20.157 39.4094 20.5 37.5689 20.5V21.5C39.534 21.5 41.2748 21.1333 42.7768 20.3827L42.3298 19.4882ZM45.4115 16.6588C44.6907 17.877 43.6682 18.8193 42.3298 19.4882L42.7768 20.3827C44.2788 19.6321 45.4486 18.5598 46.2721 17.1681L45.4115 16.6588ZM67.2208 1.14409C65.6763 0.715135 64.1246 0.5 62.5667 0.5V1.5C64.0313 1.5 65.4931 1.70209 66.9532 2.10761L67.2208 1.14409ZM71.2694 2.89168C70.114 2.15292 68.7623 1.57222 67.2208 1.14409L66.9532 2.10761C68.4162 2.51395 69.6731 3.05795 70.7306 3.73417L71.2694 2.89168ZM69.131 8.42498L71.4518 3.52702L70.5482 3.09883L68.2273 7.99678L69.131 8.42498ZM64.954 7.08936C66.2136 7.54393 67.3747 8.06407 68.4382 8.64899L68.9201 7.77277C67.8067 7.16041 66.5975 6.61934 65.2934 6.14873L64.954 7.08936ZM62.0135 6.42517C62.72 6.42517 63.6931 6.63436 64.954 7.08936L65.2934 6.14873C63.9905 5.67856 62.8902 5.42517 62.0135 5.42517V6.42517ZM61.3261 6.7415C61.3261 6.60856 61.3637 6.57049 61.4062 6.54127C61.4825 6.48883 61.6595 6.42517 62.0135 6.42517V5.42517C61.5759 5.42517 61.1592 5.49756 60.8397 5.71723C60.4864 5.96012 60.3261 6.33021 60.3261 6.7415H61.3261ZM61.7851 7.247C61.3899 7.06391 61.3261 6.88584 61.3261 6.7415H60.3261C60.3261 7.41349 60.7615 7.87486 61.3648 8.15436L61.7851 7.247ZM64.0691 7.98553C62.9954 7.70587 62.242 7.45863 61.7851 7.247L61.3648 8.15436C61.9065 8.40532 62.7317 8.67054 63.817 8.95324L64.0691 7.98553ZM67.614 9.15244C66.6712 8.7497 65.4881 8.36159 64.0711 7.98607L63.8149 8.9527C65.2045 9.32096 66.3378 9.69474 67.2211 10.0721L67.614 9.15244ZM70.2034 11.1152C69.4689 10.2342 68.6056 9.57603 67.614 9.15244L67.2211 10.0721C68.0556 10.4285 68.7935 10.9858 69.4353 11.7556L70.2034 11.1152ZM71.3516 14.7415C71.3516 13.2796 70.9856 12.0534 70.2034 11.1152L69.4353 11.7556C70.0294 12.4682 70.3516 13.4461 70.3516 14.7415H71.3516ZM70.1606 18.5444C70.9644 17.5073 71.3516 16.2283 71.3516 14.7415H70.3516C70.3516 16.0483 70.0146 17.1004 69.3702 17.9318L70.1606 18.5444ZM66.996 20.7892C68.3106 20.3071 69.3724 19.5612 70.1606 18.5444L69.3702 17.9318C68.71 18.7835 67.8108 19.4253 66.6517 19.8503L66.996 20.7892ZM62.7016 21.5C64.2631 21.5 65.6965 21.2656 66.996 20.7892L66.6517 19.8503C65.4774 20.2809 64.1627 20.5 62.7016 20.5V21.5ZM57.3778 20.6609C59.1635 21.2192 60.9386 21.5 62.7016 21.5V20.5C61.0464 20.5 59.3718 20.2366 57.6762 19.7065L57.3778 20.6609ZM52.694 18.2798C54.024 19.3092 55.5877 20.1012 57.3778 20.6609L57.6762 19.7065C55.985 19.1777 54.5307 18.4369 53.306 17.489L52.694 18.2798ZM54.9399 12.8197L52.5516 17.6632L53.4484 18.1055L55.8368 13.2619L54.9399 12.8197ZM59.2549 14.7075C57.8202 14.1191 56.6413 13.4334 55.7082 12.6566L55.0684 13.4251C56.0963 14.2809 57.3687 15.0147 58.8755 15.6327L59.2549 14.7075ZM62.7556 15.5748C61.8587 15.5748 60.6977 15.2991 59.2549 14.7075L58.8755 15.6327C60.3743 16.2474 61.6735 16.5748 62.7556 16.5748V15.5748ZM63.8073 15.068C63.8073 15.2521 63.7494 15.3374 63.6473 15.4037C63.5077 15.4942 63.2348 15.5748 62.7556 15.5748V16.5748C63.311 16.5748 63.8138 16.4877 64.1916 16.2426C64.6066 15.9733 64.8073 15.5552 64.8073 15.068H63.8073ZM63.3379 14.5367C63.734 14.717 63.8073 14.9013 63.8073 15.068H64.8073C64.8073 14.3821 64.3725 13.9089 63.7521 13.6265L63.3379 14.5367ZM60.9747 13.798C62.094 14.0779 62.8733 14.3253 63.3379 14.5367L63.7521 13.6265C63.2002 13.3754 62.3468 13.1103 61.2172 12.8279L60.9747 13.798ZM57.4809 12.7151C58.4278 13.0989 59.595 13.4594 60.9768 13.7985L61.2151 12.8273C59.8623 12.4953 58.7446 12.1483 57.8565 11.7883L57.4809 12.7151ZM54.906 10.8339C55.6259 11.6816 56.4851 12.3115 57.4809 12.7151L57.8565 11.7883C57.0171 11.4481 56.2886 10.9171 55.6682 10.1865L54.906 10.8339ZM53.7819 7.35374C53.7819 8.75463 54.1402 9.93212 54.906 10.8339L55.6682 10.1865C55.0937 9.51005 54.7819 8.58325 54.7819 7.35374H53.7819ZM54.8929 3.71061C54.1482 4.75975 53.7819 5.98093 53.7819 7.35374H54.7819C54.7819 6.16872 55.0946 5.15409 55.7083 4.28939L54.8929 3.71061ZM58.0098 1.3206C56.6821 1.87237 55.6345 2.66565 54.8929 3.71061L55.7083 4.28939C56.325 3.42051 57.2114 2.73534 58.3935 2.24402L58.0098 1.3206ZM62.5667 0.5C60.8597 0.5 59.3372 0.768916 58.0098 1.3206L58.3935 2.24402C59.5759 1.75262 60.9634 1.5 62.5667 1.5V0.5ZM76.5 21V1H75.5V21H76.5ZM83 20.5H76V21.5H83V20.5ZM82.5 1V21H83.5V1H82.5ZM76 1.5H83V0.5H76V1.5ZM94.4982 11.0921L102.194 21.301L102.992 20.699L95.2968 10.4901L94.4982 11.0921ZM95.3975 21V10.7911H94.3975V21H95.3975ZM89 21.5H94.8975V20.5H89V21.5ZM88.5 1V21H89.5V1H88.5ZM94.4208 0.5H89V1.5H94.4208V0.5ZM102.543 10.9782L94.8205 0.69966L94.021 1.30034L101.744 11.5789L102.543 10.9782ZM101.643 1V11.2786H102.643V1H101.643ZM108 0.5H102.143V1.5H108V0.5ZM108.5 21V1H107.5V21H108.5ZM102.593 21.5H108V20.5H102.593V21.5ZM121.063 6.02785V8.47911H122.063V6.02785H121.063ZM131.752 5.52785H121.563V6.52785H131.752V5.52785ZM131.252 1V6.02785H132.252V1H131.252ZM115 1.5H131.752V0.5H115V1.5ZM115.5 21V1H114.5V21H115.5ZM132 20.5H115V21.5H132V20.5ZM131.5 15.9861V21H132.5V15.9861H131.5ZM121.563 16.4861H132V15.4861H121.563V16.4861ZM121.063 13.493V15.9861H122.063V13.493H121.063ZM130.814 12.993H121.563V13.993H130.814V12.993ZM130.314 8.47911V13.493H131.314V8.47911H130.314ZM121.563 8.97911H130.814V7.97911H121.563V8.97911ZM150.221 1.14409C148.676 0.715135 147.125 0.5 145.567 0.5V1.5C147.031 1.5 148.493 1.70209 149.953 2.10761L150.221 1.14409ZM154.269 2.89168C153.114 2.15292 151.762 1.57222 150.221 1.14409L149.953 2.10761C151.416 2.51395 152.673 3.05796 153.731 3.73417L154.269 2.89168ZM152.131 8.42498L154.452 3.52703L153.548 3.09882L151.227 7.99678L152.131 8.42498ZM147.954 7.08936C149.214 7.54393 150.375 8.06407 151.438 8.64899L151.92 7.77278C150.807 7.16041 149.597 6.61934 148.293 6.14873L147.954 7.08936ZM145.013 6.42517C145.72 6.42517 146.693 6.63436 147.954 7.08936L148.293 6.14873C146.991 5.67856 145.89 5.42517 145.013 5.42517V6.42517ZM144.326 6.7415C144.326 6.60856 144.364 6.57049 144.406 6.54127C144.482 6.48883 144.659 6.42517 145.013 6.42517V5.42517C144.576 5.42517 144.159 5.49756 143.84 5.71723C143.486 5.96012 143.326 6.33021 143.326 6.7415H144.326ZM144.785 7.247C144.39 7.06391 144.326 6.88583 144.326 6.7415H143.326C143.326 7.4135 143.761 7.87486 144.365 8.15436L144.785 7.247ZM147.069 7.98553C145.995 7.70587 145.242 7.45863 144.785 7.247L144.365 8.15436C144.906 8.40532 145.732 8.67054 146.817 8.95324L147.069 7.98553ZM150.614 9.15244C149.671 8.7497 148.488 8.36159 147.071 7.98607L146.815 8.9527C148.205 9.32096 149.338 9.69474 150.221 10.0721L150.614 9.15244ZM153.203 11.1152C152.469 10.2342 151.606 9.57603 150.614 9.15244L150.221 10.0721C151.056 10.4285 151.794 10.9858 152.435 11.7556L153.203 11.1152ZM154.352 14.7415C154.352 13.2796 153.986 12.0534 153.203 11.1152L152.435 11.7556C153.029 12.4682 153.352 13.4461 153.352 14.7415H154.352ZM153.161 18.5444C153.964 17.5073 154.352 16.2283 154.352 14.7415H153.352C153.352 16.0483 153.015 17.1004 152.37 17.9318L153.161 18.5444ZM149.996 20.7892C151.311 20.3071 152.372 19.5612 153.161 18.5444L152.37 17.9318C151.71 18.7835 150.811 19.4253 149.652 19.8503L149.996 20.7892ZM145.702 21.5C147.263 21.5 148.696 21.2656 149.996 20.7892L149.652 19.8503C148.477 20.2809 147.163 20.5 145.702 20.5V21.5ZM140.378 20.6609C142.163 21.2192 143.939 21.5 145.702 21.5V20.5C144.046 20.5 142.372 20.2366 140.676 19.7065L140.378 20.6609ZM135.694 18.2798C137.024 19.3092 138.588 20.1012 140.378 20.6609L140.676 19.7065C138.985 19.1777 137.531 18.4369 136.306 17.489L135.694 18.2798ZM137.94 12.8197L135.552 17.6632L136.448 18.1055L138.837 13.2619L137.94 12.8197ZM142.255 14.7075C140.82 14.1191 139.641 13.4334 138.708 12.6566L138.068 13.4251C139.096 14.2809 140.369 15.0147 141.875 15.6327L142.255 14.7075ZM145.756 15.5748C144.859 15.5748 143.698 15.2991 142.255 14.7075L141.876 15.6327C143.374 16.2474 144.674 16.5748 145.756 16.5748V15.5748ZM146.807 15.068C146.807 15.2521 146.749 15.3374 146.647 15.4037C146.508 15.4942 146.235 15.5748 145.756 15.5748V16.5748C146.311 16.5748 146.814 16.4877 147.192 16.2426C147.607 15.9733 147.807 15.5552 147.807 15.068H146.807ZM146.338 14.5367C146.734 14.717 146.807 14.9013 146.807 15.068H147.807C147.807 14.3821 147.372 13.9089 146.752 13.6265L146.338 14.5367ZM143.975 13.798C145.094 14.0779 145.873 14.3253 146.338 14.5367L146.752 13.6265C146.2 13.3754 145.347 13.1103 144.217 12.8279L143.975 13.798ZM140.481 12.7151C141.428 13.0989 142.595 13.4594 143.977 13.7985L144.215 12.8273C142.862 12.4953 141.745 12.1483 140.856 11.7883L140.481 12.7151ZM137.906 10.8339C138.626 11.6816 139.485 12.3115 140.481 12.7151L140.856 11.7883C140.017 11.4481 139.289 10.9171 138.668 10.1865L137.906 10.8339ZM136.782 7.35374C136.782 8.75463 137.14 9.93212 137.906 10.8339L138.668 10.1865C138.094 9.51005 137.782 8.58325 137.782 7.35374H136.782ZM137.893 3.71061C137.148 4.75975 136.782 5.98093 136.782 7.35374H137.782C137.782 6.16872 138.095 5.15409 138.708 4.28939L137.893 3.71061ZM141.01 1.3206C139.682 1.87237 138.635 2.66565 137.893 3.71061L138.708 4.28939C139.325 3.42051 140.211 2.73534 141.394 2.24402L141.01 1.3206ZM145.567 0.5C143.86 0.5 142.337 0.768917 141.01 1.3206L141.394 2.24402C142.576 1.75262 143.963 1.5 145.567 1.5V0.5ZM168.567 1.5C170.031 1.5 171.493 1.70209 172.953 2.10761L173.221 1.14409C171.676 0.715135 170.125 0.5 168.567 0.5V1.5ZM164.394 2.24402C165.576 1.75262 166.963 1.5 168.567 1.5V0.5C166.86 0.5 165.337 0.768917 164.01 1.3206L164.394 2.24402ZM161.708 4.28939C162.325 3.42051 163.211 2.73534 164.394 2.24402L164.01 1.3206C162.682 1.87237 161.635 2.66565 160.893 3.71061L161.708 4.28939ZM160.782 7.35374C160.782 6.16872 161.095 5.15409 161.708 4.28939L160.893 3.71061C160.148 4.75975 159.782 5.98093 159.782 7.35374H160.782ZM161.668 10.1865C161.094 9.51005 160.782 8.58325 160.782 7.35374H159.782C159.782 8.75463 160.14 9.93212 160.906 10.8339L161.668 10.1865ZM163.856 11.7883C163.017 11.4481 162.289 10.9171 161.668 10.1865L160.906 10.8339C161.626 11.6816 162.485 12.3115 163.481 12.7151L163.856 11.7883ZM167.215 12.8273C165.862 12.4953 164.745 12.1483 163.856 11.7883L163.481 12.7151C164.428 13.0989 165.595 13.4594 166.977 13.7985L167.215 12.8273ZM169.752 13.6265C169.2 13.3754 168.347 13.1103 167.217 12.8279L166.975 13.798C168.094 14.0779 168.873 14.3253 169.338 14.5367L169.752 13.6265ZM170.807 15.068C170.807 14.3821 170.372 13.9089 169.752 13.6265L169.338 14.5367C169.734 14.717 169.807 14.9013 169.807 15.068H170.807ZM168.756 16.5748C169.311 16.5748 169.814 16.4877 170.192 16.2426C170.607 15.9733 170.807 15.5552 170.807 15.068H169.807C169.807 15.2521 169.749 15.3374 169.647 15.4037C169.508 15.4942 169.235 15.5748 168.756 15.5748V16.5748ZM164.876 15.6327C166.374 16.2474 167.674 16.5748 168.756 16.5748V15.5748C167.859 15.5748 166.698 15.2991 165.255 14.7075L164.876 15.6327ZM161.068 13.4251C162.096 14.2809 163.369 15.0147 164.875 15.6327L165.255 14.7075C163.82 14.1191 162.641 13.4334 161.708 12.6566L161.068 13.4251ZM159.448 18.1055L161.837 13.2619L160.94 12.8197L158.552 17.6632L159.448 18.1055ZM163.676 19.7065C161.985 19.1777 160.531 18.4369 159.306 17.489L158.694 18.2798C160.024 19.3092 161.588 20.1012 163.378 20.6609L163.676 19.7065ZM168.702 20.5C167.046 20.5 165.372 20.2366 163.676 19.7065L163.378 20.6609C165.163 21.2192 166.939 21.5 168.702 21.5V20.5ZM172.652 19.8503C171.477 20.2809 170.163 20.5 168.702 20.5V21.5C170.263 21.5 171.696 21.2656 172.996 20.7892L172.652 19.8503ZM175.37 17.9318C174.71 18.7835 173.811 19.4253 172.652 19.8503L172.996 20.7892C174.311 20.3071 175.372 19.5612 176.161 18.5444L175.37 17.9318ZM176.352 14.7415C176.352 16.0483 176.015 17.1004 175.37 17.9318L176.161 18.5444C176.964 17.5073 177.352 16.2283 177.352 14.7415H176.352ZM175.435 11.7556C176.029 12.4682 176.352 13.4461 176.352 14.7415H177.352C177.352 13.2796 176.986 12.0534 176.203 11.1152L175.435 11.7556ZM173.221 10.0721C174.056 10.4285 174.794 10.9858 175.435 11.7556L176.203 11.1152C175.469 10.2342 174.606 9.57603 173.614 9.15244L173.221 10.0721ZM169.815 8.9527C171.205 9.32096 172.338 9.69474 173.221 10.0721L173.614 9.15244C172.671 8.7497 171.488 8.36159 170.071 7.98607L169.815 8.9527ZM167.365 8.15436C167.906 8.40532 168.732 8.67054 169.817 8.95324L170.069 7.98553C168.995 7.70587 168.242 7.45863 167.785 7.247L167.365 8.15436ZM166.326 6.7415C166.326 7.4135 166.761 7.87486 167.365 8.15436L167.785 7.247C167.39 7.06391 167.326 6.88583 167.326 6.7415H166.326ZM168.013 5.42517C167.576 5.42517 167.159 5.49756 166.84 5.71723C166.486 5.96012 166.326 6.33021 166.326 6.7415H167.326C167.326 6.60856 167.364 6.57049 167.406 6.54127C167.482 6.48883 167.659 6.42517 168.013 6.42517V5.42517ZM171.293 6.14873C169.991 5.67856 168.89 5.42517 168.013 5.42517V6.42517C168.72 6.42517 169.693 6.63436 170.954 7.08936L171.293 6.14873ZM174.92 7.77278C173.807 7.16041 172.597 6.61934 171.293 6.14873L170.954 7.08936C172.214 7.54393 173.375 8.06407 174.438 8.64899L174.92 7.77278ZM176.548 3.09882L174.227 7.99678L175.131 8.42498L177.452 3.52703L176.548 3.09882ZM172.953 2.10761C174.416 2.51395 175.673 3.05796 176.731 3.73417L177.269 2.89168C176.114 2.15292 174.762 1.57222 173.221 1.14409L172.953 2.10761Z" fill="black"/>
</g>
<defs>
<filter id="filter0_d" x="0.5" y="0.5" width="181.141" height="29" filterUnits="userSpaceOnUse" color-interpolation-filters="sRGB">
<feFlood flood-opacity="0" result="BackgroundImageFix"/>
<feColorMatrix in="SourceAlpha" type="matrix" values="0 0 0 0 0 0 0 0 0 0 0 0 0 0 0 0 0 0 127 0" result="hardAlpha"/>
<feOffset dy="4"/>
<feGaussianBlur stdDeviation="2"/>
<feComposite in2="hardAlpha" operator="out"/>
<feColorMatrix type="matrix" values="0 0 0 0 0 0 0 0 0 0 0 0 0 0 0 0 0 0 0.25 0"/>
<feBlend mode="normal" in2="BackgroundImageFix" result="effect1_dropShadow"/>
<feBlend mode="normal" in="SourceGraphic" in2="effect1_dropShadow" result="shape"/>
</filter>
</defs>
</svg>
